<svg xmlns="http://www.w3.org/2000/svg" xmlns:xlink="http://www.w3.org/1999/xlink" width="2000" zoomAndPan="magnify" viewBox="0 0 1500 1499.999933" height="2000" preserveAspectRatio="xMidYMid meet" version="1.0"><defs><g/></defs><g fill="#ffffff" fill-opacity="1"><g transform="translate(785.870774, 794.249912)"><g><path d="M 40.34375 -48.59375 L 40.34375 -10.953125 C 40.34375 -8.347656 41.289062 -6.117188 43.1875 -4.265625 C 45.09375 -2.421875 47.347656 -1.5 49.953125 -1.5 L 51.75 -1.5 L 51.90625 0 L 6.296875 0 L 6.296875 -1.5 L 8.25 -1.5 C 10.851562 -1.5 13.078125 -2.421875 14.921875 -4.265625 C 16.773438 -6.117188 17.75 -8.347656 17.84375 -10.953125 L 17.84375 -94.5 C 17.644531 -97 16.617188 -99.125 14.765625 -100.875 C 12.921875 -102.625 10.75 -103.5 8.25 -103.5 L 6.296875 -103.5 L 6.296875 -105 L 63.75 -105 C 68.144531 -105 71.992188 -105.347656 75.296875 -106.046875 C 78.597656 -106.742188 80.75 -107.296875 81.75 -107.703125 L 81.75 -82.34375 L 80.25 -82.34375 L 80.25 -83.84375 C 80.25 -89.84375 78 -94.09375 73.5 -96.59375 C 71.394531 -97.800781 68.894531 -98.453125 66 -98.546875 L 40.34375 -98.546875 L 40.34375 -54.90625 L 83.546875 -54.90625 C 87.242188 -55 90.289062 -56.269531 92.6875 -58.71875 C 95.09375 -61.175781 96.296875 -64.203125 96.296875 -67.796875 L 96.296875 -69.15625 L 97.796875 -69.15625 L 97.796875 -34.5 L 96.296875 -34.5 L 96.296875 -35.703125 C 96.296875 -39.398438 95.117188 -42.445312 92.765625 -44.84375 C 90.421875 -47.25 87.445312 -48.5 83.84375 -48.59375 Z M 40.34375 -48.59375 "/></g></g></g><g fill="#ffffff" fill-opacity="1"><g transform="translate(877.220779, 794.249912)"><g><path d="M 144.90625 27.453125 C 134.007812 32.953125 122.957031 33.851562 111.75 30.15625 C 99.851562 26.351562 89.601562 18.25 81 5.84375 C 76.40625 -0.75 72.457031 -8.394531 69.15625 -17.09375 L 64.359375 -29.84375 L 28.953125 -29.84375 L 21 -10.953125 C 20.5 -9.648438 20.25 -8.597656 20.25 -7.796875 C 20.25 -6.992188 20.425781 -6.117188 20.78125 -5.171875 C 21.132812 -4.222656 21.882812 -3.375 23.03125 -2.625 C 24.175781 -1.875 25.453125 -1.5 26.859375 -1.5 L 28.0625 -1.5 L 28.0625 0 L -4.046875 0 L -4.046875 -1.5 L -2.6875 -1.5 C -0.394531 -1.5 1.875 -2.171875 4.125 -3.515625 C 6.375 -4.867188 8.25 -6.894531 9.75 -9.59375 L 43.203125 -85.953125 C 39.304688 -94.753906 35.15625 -100.800781 30.75 -104.09375 C 27.050781 -106.894531 23.523438 -108.296875 20.171875 -108.296875 C 16.828125 -108.296875 13.707031 -107.796875 10.8125 -106.796875 L 10.5 -108.296875 C 17.707031 -111.992188 24.609375 -113.84375 31.203125 -113.84375 C 39.398438 -113.84375 46.75 -110.644531 53.25 -104.25 C 59.65625 -97.945312 65.304688 -88.847656 70.203125 -76.953125 L 91.953125 -23.25 C 100.148438 -2.945312 108.550781 11 117.15625 18.59375 C 120.65625 21.695312 124.253906 23.847656 127.953125 25.046875 C 131.648438 26.242188 134.773438 26.84375 137.328125 26.84375 C 139.878906 26.84375 142.351562 26.546875 144.75 25.953125 Z M 31.5 -36.296875 L 62.109375 -36.296875 L 51.609375 -64.046875 C 51.109375 -65.453125 50.40625 -67.378906 49.5 -69.828125 C 48.601562 -72.273438 48.003906 -74 47.703125 -75 Z M 31.5 -36.296875 "/></g></g></g><g fill="#ffffff" fill-opacity="1"><g transform="translate(982.970793, 794.249912)"><g><path d="M 84.90625 -79.203125 C 84.90625 -74.503906 83.726562 -70.300781 81.375 -66.59375 C 79.03125 -62.894531 76.007812 -60.347656 72.3125 -58.953125 C 83.90625 -58.347656 92.351562 -53.796875 97.65625 -45.296875 C 100.351562 -40.992188 101.703125 -35.691406 101.703125 -29.390625 C 101.703125 -23.097656 99.273438 -17.347656 94.421875 -12.140625 C 89.578125 -6.941406 83.40625 -3.242188 75.90625 -1.046875 C 68.40625 1.148438 60.503906 2.25 52.203125 2.25 C 31.503906 2.25 16.707031 -3.25 7.8125 -14.25 C 2.101562 -21.25 -0.75 -30.695312 -0.75 -42.59375 C -0.75 -44.59375 -0.644531 -46.59375 -0.4375 -48.59375 L 1.0625 -48.75 C 1.757812 -31.550781 7.90625 -19.25 19.5 -11.84375 L 19.5 -94.203125 C 19.40625 -97.898438 17.757812 -100.597656 14.5625 -102.296875 C 13.15625 -103.097656 11.601562 -103.5 9.90625 -103.5 L 7.953125 -103.5 L 7.953125 -105 L 46.0625 -105 C 57.15625 -105 66.398438 -102.773438 73.796875 -98.328125 C 81.203125 -93.878906 84.90625 -87.503906 84.90625 -79.203125 Z M 46.203125 -4.796875 C 55.503906 -4.796875 62.78125 -7.242188 68.03125 -12.140625 C 73.28125 -17.046875 75.90625 -23.5 75.90625 -31.5 C 75.90625 -36.5 74.976562 -40.722656 73.125 -44.171875 C 71.28125 -47.617188 68.859375 -50.195312 65.859375 -51.90625 C 60.359375 -55.195312 54.109375 -56.84375 47.109375 -56.84375 L 47.109375 -58.203125 C 50.304688 -58.203125 53.003906 -59.351562 55.203125 -61.65625 C 59.003906 -65.65625 60.90625 -71.101562 60.90625 -78 C 60.90625 -84.894531 59.378906 -89.992188 56.328125 -93.296875 C 53.273438 -96.597656 48.5 -98.347656 42 -98.546875 L 42 -4.953125 C 43.40625 -4.847656 44.804688 -4.796875 46.203125 -4.796875 Z M 46.203125 -4.796875 "/></g></g></g><g fill="#ffffff" fill-opacity="1"><g transform="translate(1085.870794, 794.249912)"><g><path d="M 162.75 25.5 C 154.945312 29.394531 146.644531 31.34375 137.84375 31.34375 C 130.050781 31.34375 122.953125 30.144531 116.546875 27.75 C 102.742188 22.644531 90.992188 12.695312 81.296875 -2.09375 C 78.796875 -5.695312 74.144531 -12.597656 67.34375 -22.796875 C 60.550781 -32.992188 56.15625 -39.492188 54.15625 -42.296875 C 50.65625 -47.796875 47.851562 -50.796875 45.75 -51.296875 L 45.75 -52.796875 C 45.851562 -52.796875 45.976562 -52.796875 46.125 -52.796875 C 46.269531 -52.796875 46.441406 -52.796875 46.640625 -52.796875 C 46.847656 -52.796875 47.050781 -52.796875 47.25 -52.796875 C 47.445312 -52.796875 47.695312 -52.796875 48 -52.796875 C 48.300781 -52.796875 48.550781 -52.796875 48.75 -52.796875 C 53.851562 -52.796875 58.550781 -53.945312 62.84375 -56.25 C 69.34375 -59.851562 72.59375 -66.503906 72.59375 -76.203125 C 72.59375 -83.296875 70.59375 -88.769531 66.59375 -92.625 C 62.59375 -96.476562 57.796875 -98.40625 52.203125 -98.40625 L 40.796875 -98.40625 L 40.796875 -10.953125 C 40.796875 -8.347656 41.742188 -6.117188 43.640625 -4.265625 C 45.546875 -2.421875 47.800781 -1.5 50.40625 -1.5 L 52.34375 -1.5 L 52.34375 0 L 6.75 0 L 6.75 -1.5 L 8.703125 -1.5 C 11.203125 -1.5 13.398438 -2.398438 15.296875 -4.203125 C 17.203125 -6.003906 18.203125 -8.203125 18.296875 -10.796875 L 18.296875 -94.046875 C 18.203125 -96.648438 17.226562 -98.875 15.375 -100.71875 C 13.519531 -102.570312 11.296875 -103.5 8.703125 -103.5 L 6.75 -103.5 L 6.75 -105 L 58.203125 -105 C 71.097656 -105 81.097656 -102.050781 88.203125 -96.15625 C 93.796875 -91.550781 96.59375 -85.046875 96.59375 -76.640625 C 96.59375 -68.242188 93.867188 -61.421875 88.421875 -56.171875 C 82.972656 -50.921875 76.75 -48.296875 69.75 -48.296875 C 69.144531 -48.296875 68.492188 -48.347656 67.796875 -48.453125 C 71.898438 -46.253906 75.328125 -43.800781 78.078125 -41.09375 C 80.828125 -38.394531 83.222656 -35.84375 85.265625 -33.4375 C 87.316406 -31.039062 89.066406 -28.914062 90.515625 -27.0625 C 91.972656 -25.21875 93.898438 -22.769531 96.296875 -19.71875 C 98.703125 -16.675781 101.203125 -13.503906 103.796875 -10.203125 C 106.398438 -6.898438 109.273438 -3.523438 112.421875 -0.078125 C 115.578125 3.367188 119.078125 6.644531 122.921875 9.75 C 126.773438 12.851562 130.703125 15.40625 134.703125 17.40625 C 143.203125 21.695312 152.550781 23.894531 162.75 24 Z M 162.75 25.5 "/></g></g></g><g fill="#ffffff" fill-opacity="1"><g transform="translate(1199.12083, 794.249912)"><g><path d="M 60.609375 -1.5 L 62.5625 -1.5 L 62.5625 0 L 16.953125 0 L 16.953125 -1.5 L 18.90625 -1.5 C 21.507812 -1.5 23.734375 -2.421875 25.578125 -4.265625 C 27.429688 -6.117188 28.40625 -8.347656 28.5 -10.953125 L 28.5 -98.84375 L 14.25 -98.25 C 4.851562 -97.851562 0.15625 -94.351562 0.15625 -87.75 C 0.15625 -85.050781 1.078125 -82.773438 2.921875 -80.921875 C 4.773438 -79.078125 7.351562 -78.15625 10.65625 -78.15625 C 10.957031 -78.15625 11.257812 -78.15625 11.5625 -78.15625 L 11.5625 -77.25 C 9.5625 -76.550781 7.859375 -76.203125 6.453125 -76.203125 C 1.953125 -76.203125 -1.492188 -77.800781 -3.890625 -81 C -5.585938 -83.195312 -6.4375 -85.695312 -6.4375 -88.5 C -6.4375 -92.894531 -4.710938 -96.519531 -1.265625 -99.375 C 2.179688 -102.226562 7.503906 -103.90625 14.703125 -104.40625 C 16.003906 -104.5 20.207031 -104.695312 27.3125 -105 C 43.507812 -105.601562 55.257812 -106.601562 62.5625 -108 L 62.859375 -106.5 C 58.554688 -105.800781 55.53125 -104.347656 53.78125 -102.140625 C 52.03125 -99.941406 51.101562 -96.695312 51 -92.40625 L 51 -10.953125 C 51.101562 -8.347656 52.078125 -6.117188 53.921875 -4.265625 C 55.773438 -2.421875 58.003906 -1.5 60.609375 -1.5 Z M 60.609375 -1.5 "/></g></g></g><g fill="#ffffff" fill-opacity="1"><g transform="translate(1264.520833, 794.249912)"><g><path d="M 121.203125 -58.65625 C 121.503906 -55.65625 121.65625 -51.878906 121.65625 -47.328125 C 121.65625 -42.773438 120.753906 -37.222656 118.953125 -30.671875 C 117.148438 -24.117188 113.898438 -18.34375 109.203125 -13.34375 C 99.597656 -3.050781 86.394531 2.09375 69.59375 2.09375 C 49.195312 2.09375 33.097656 -2.925781 21.296875 -12.96875 C 9.492188 -23.019531 3.59375 -36.171875 3.59375 -52.421875 C 3.59375 -68.671875 9.566406 -81.84375 21.515625 -91.9375 C 33.472656 -102.039062 49.25 -107.09375 68.84375 -107.09375 C 76.34375 -107.09375 83.492188 -106.34375 90.296875 -104.84375 C 97.097656 -103.34375 102.75 -101.394531 107.25 -99 L 107.546875 -73.203125 L 106.34375 -73.203125 C 104.644531 -79.597656 101.796875 -84.945312 97.796875 -89.25 C 90.597656 -96.945312 80.898438 -100.796875 68.703125 -100.796875 C 56.503906 -100.796875 46.675781 -96.445312 39.21875 -87.75 C 31.769531 -79.050781 28.046875 -67.523438 28.046875 -53.171875 C 28.046875 -38.828125 31.921875 -27.15625 39.671875 -18.15625 C 47.421875 -9.15625 58.097656 -4.503906 71.703125 -4.203125 C 86.398438 -4.203125 98.097656 -8.898438 106.796875 -18.296875 C 115.492188 -27.703125 119.84375 -40.453125 119.84375 -56.546875 C 119.84375 -57.242188 119.84375 -57.945312 119.84375 -58.65625 Z M 121.203125 -58.65625 "/></g></g></g><g fill="#ffffff" fill-opacity="1"><g transform="translate(570.675464, 828.109781)"><g><path d="M 300.9375 18.421875 C 285.507812 31.742188 268.410156 38.40625 249.640625 38.40625 C 236.316406 38.40625 221.847656 34.8125 206.234375 27.625 C 196.765625 23.0625 187.992188 17.664062 179.921875 11.4375 C 171.859375 5.21875 161.953125 -2.710938 150.203125 -12.359375 C 134.242188 -1.835938 116.269531 3.421875 96.28125 3.421875 C 86.28125 3.421875 76.457031 2.015625 66.8125 -0.796875 C 52.78125 -4.648438 41.03125 -11.488281 31.5625 -21.3125 C 21.75 -31.476562 16.84375 -43.84375 16.84375 -58.40625 C 16.84375 -69.625 19.515625 -79.398438 24.859375 -87.734375 C 30.203125 -96.066406 37.613281 -102.6875 47.09375 -107.59375 C 39.550781 -119.164062 35.78125 -131.222656 35.78125 -143.765625 C 35.78125 -156.304688 40.160156 -166.785156 48.921875 -175.203125 C 57.691406 -183.617188 69.972656 -187.828125 85.765625 -187.828125 C 105.753906 -187.828125 121.273438 -181.601562 132.328125 -169.15625 L 128.640625 -139.421875 L 126 -139.421875 C 125.476562 -151.867188 121.707031 -161.734375 114.6875 -169.015625 C 107.675781 -176.296875 98.820312 -179.9375 88.125 -179.9375 C 77.425781 -179.9375 69.007812 -176.554688 62.875 -169.796875 C 56.738281 -163.046875 53.671875 -154.675781 53.671875 -144.6875 C 53.671875 -133.457031 57.21875 -123.109375 64.3125 -113.640625 C 71.414062 -104.171875 83.164062 -92.332031 99.5625 -78.125 C 115.96875 -63.925781 135.476562 -47.265625 158.09375 -28.140625 C 167.570312 -36.734375 175.378906 -46.90625 181.515625 -58.65625 C 189.929688 -74.269531 194.140625 -91.285156 194.140625 -109.703125 C 194.140625 -118.460938 193.085938 -127.140625 190.984375 -135.734375 C 187.828125 -148.890625 180.988281 -161.691406 170.46875 -174.140625 C 159.945312 -186.597656 146.265625 -197.210938 129.421875 -205.984375 L 130.734375 -207.5625 C 145.472656 -201.59375 158.015625 -193.875 168.359375 -184.40625 C 190.453125 -164.238281 201.5 -138.722656 201.5 -107.859375 C 201.5 -88.566406 196.328125 -69.625 185.984375 -51.03125 C 180.023438 -40.507812 172.75 -31.21875 164.15625 -23.15625 L 180.984375 -9.46875 C 198.867188 4.90625 216.757812 15.164062 234.65625 21.3125 C 242.894531 24.113281 252.535156 25.515625 263.578125 25.515625 C 274.628906 25.515625 286.644531 22.359375 299.625 16.046875 Z M 58.65625 -18.9375 C 71.113281 -9.46875 85.234375 -4.734375 101.015625 -4.734375 C 116.273438 -4.734375 130.65625 -8.941406 144.15625 -17.359375 C 119.78125 -37.703125 100.050781 -54.453125 84.96875 -67.609375 C 69.882812 -80.765625 58.75 -91.988281 51.5625 -101.28125 C 41.039062 -91.457031 35.78125 -78.128906 35.78125 -61.296875 C 35.78125 -44.460938 43.40625 -30.34375 58.65625 -18.9375 Z M 58.65625 -18.9375 "/></g></g></g><g fill="#ffffff" fill-opacity="1"><g transform="translate(785.866856, 828.109781)"><g/></g></g><g fill="#ffffff" fill-opacity="1"><g transform="translate(169.124683, 794.249912)"><g><path d="M 40.34375 -48.59375 L 40.34375 -10.953125 C 40.34375 -8.347656 41.289062 -6.117188 43.1875 -4.265625 C 45.09375 -2.421875 47.347656 -1.5 49.953125 -1.5 L 51.75 -1.5 L 51.90625 0 L 6.296875 0 L 6.296875 -1.5 L 8.25 -1.5 C 10.851562 -1.5 13.078125 -2.421875 14.921875 -4.265625 C 16.773438 -6.117188 17.75 -8.347656 17.84375 -10.953125 L 17.84375 -94.5 C 17.644531 -97 16.617188 -99.125 14.765625 -100.875 C 12.921875 -102.625 10.75 -103.5 8.25 -103.5 L 6.296875 -103.5 L 6.296875 -105 L 63.75 -105 C 68.144531 -105 71.992188 -105.347656 75.296875 -106.046875 C 78.597656 -106.742188 80.75 -107.296875 81.75 -107.703125 L 81.75 -82.34375 L 80.25 -82.34375 L 80.25 -83.84375 C 80.25 -89.84375 78 -94.09375 73.5 -96.59375 C 71.394531 -97.800781 68.894531 -98.453125 66 -98.546875 L 40.34375 -98.546875 L 40.34375 -54.90625 L 83.546875 -54.90625 C 87.242188 -55 90.289062 -56.269531 92.6875 -58.71875 C 95.09375 -61.175781 96.296875 -64.203125 96.296875 -67.796875 L 96.296875 -69.15625 L 97.796875 -69.15625 L 97.796875 -34.5 L 96.296875 -34.5 L 96.296875 -35.703125 C 96.296875 -39.398438 95.117188 -42.445312 92.765625 -44.84375 C 90.421875 -47.25 87.445312 -48.5 83.84375 -48.59375 Z M 40.34375 -48.59375 "/></g></g></g><g fill="#ffffff" fill-opacity="1"><g transform="translate(267.674692, 794.249912)"><g><path d="M 128.09375 20.84375 C 138.5 20.84375 146.898438 18.796875 153.296875 14.703125 L 154.34375 15.90625 C 145.75 27.800781 135.050781 34.398438 122.25 35.703125 C 119.550781 36.003906 117.222656 36.15625 115.265625 36.15625 C 113.316406 36.15625 111.066406 36.078125 108.515625 35.921875 C 105.972656 35.773438 102.398438 35.097656 97.796875 33.890625 C 93.203125 32.691406 89.15625 31.46875 85.65625 30.21875 C 82.15625 28.96875 78.101562 27.316406 73.5 25.265625 C 68.894531 23.222656 65.09375 21.425781 62.09375 19.875 C 59.09375 18.320312 55.519531 16.46875 51.375 14.3125 C 47.226562 12.164062 43.601562 10.34375 40.5 8.84375 C 37.394531 7.34375 34.394531 6.046875 31.5 4.953125 C 23.300781 1.648438 14.898438 0 6.296875 0 L 6.296875 -1.5 L 8.25 -1.5 C 10.851562 -1.5 13.078125 -2.398438 14.921875 -4.203125 C 16.773438 -6.003906 17.75 -8.253906 17.84375 -10.953125 L 17.84375 -94.046875 C 17.75 -96.742188 16.773438 -98.992188 14.921875 -100.796875 C 13.078125 -102.597656 10.851562 -103.5 8.25 -103.5 L 6.296875 -103.5 L 6.296875 -105 L 51.90625 -105 L 51.75 -103.5 L 50.25 -103.5 C 46.445312 -103.5 43.597656 -101.945312 41.703125 -98.84375 C 40.796875 -97.445312 40.34375 -95.847656 40.34375 -94.046875 L 40.34375 -7.046875 C 40.34375 -3.742188 40.992188 -1.46875 42.296875 -0.21875 C 43.597656 1.03125 45.050781 1.90625 46.65625 2.40625 C 84.25 14.695312 111.394531 20.84375 128.09375 20.84375 Z M 128.09375 20.84375 "/></g></g></g><g fill="#ffffff" fill-opacity="1"><g transform="translate(331.724705, 794.249912)"><g><path d="M 136.5 -135.453125 C 137.800781 -135.453125 139.148438 -135.398438 140.546875 -135.296875 L 140.546875 -133.796875 C 128.742188 -132.898438 120.242188 -127.300781 115.046875 -117 C 111.648438 -110.300781 109.953125 -101.800781 109.953125 -91.5 L 109.953125 -37.953125 C 109.753906 -25.347656 105.703125 -15.519531 97.796875 -8.46875 C 89.898438 -1.425781 78.625 2.09375 63.96875 2.09375 C 49.320312 2.09375 37.648438 -1.53125 28.953125 -8.78125 C 20.253906 -16.03125 15.953125 -25.703125 16.046875 -37.796875 L 16.046875 -96.15625 C 16.046875 -98.25 15.269531 -99.992188 13.71875 -101.390625 C 12.175781 -102.796875 10.300781 -103.5 8.09375 -103.5 L 5.703125 -103.5 L 5.703125 -105 L 48.90625 -105 L 48.90625 -103.5 L 46.5 -103.5 C 43.394531 -103.5 41.09375 -102.300781 39.59375 -99.90625 C 38.894531 -98.800781 38.546875 -97.597656 38.546875 -96.296875 L 38.546875 -39 C 38.546875 -28.394531 41.296875 -19.992188 46.796875 -13.796875 C 52.296875 -7.597656 59.546875 -4.5 68.546875 -4.5 C 68.648438 -4.5 68.703125 -4.5 68.703125 -4.5 C 68.703125 -4.5 68.75 -4.5 68.84375 -4.5 C 77.75 -4.5 85.050781 -7.398438 90.75 -13.203125 C 96.445312 -19.003906 99.296875 -26.953125 99.296875 -37.046875 L 99.296875 -91.5 C 99.296875 -105 102.867188 -115.695312 110.015625 -123.59375 C 117.171875 -131.5 126 -135.453125 136.5 -135.453125 Z M 136.5 -135.453125 "/></g></g></g><g fill="#ffffff" fill-opacity="1"><g transform="translate(455.324731, 794.249912)"><g><path d="M 111.453125 -1.5 L 113.5625 -1.5 L 113.5625 0 L 62.40625 0 L 62.40625 -1.5 L 64.359375 -1.5 C 66.453125 -1.5 68.148438 -2.5 69.453125 -4.5 C 70.054688 -5.601562 70.359375 -6.65625 70.359375 -7.65625 C 70.359375 -8.65625 70.054688 -9.65625 69.453125 -10.65625 L 48.609375 -43.203125 L 19.5 -1.796875 C 7.707031 14.796875 -5.238281 23.09375 -19.34375 23.09375 C -21.445312 23.09375 -23.597656 22.894531 -25.796875 22.5 L -25.796875 21 C -16.992188 20.195312 -9.441406 16.445312 -3.140625 9.75 C -0.140625 6.550781 3.457031 2.101562 7.65625 -3.59375 L 42.75 -52.203125 L 15.3125 -94.65625 C 13.007812 -98.15625 9.957031 -100.703125 6.15625 -102.296875 C 4.15625 -103.097656 2.15625 -103.5 0.15625 -103.5 L -1.9375 -103.5 L -1.9375 -105 L 49.0625 -105 L 49.0625 -103.5 L 47.109375 -103.5 C 45.003906 -103.5 43.300781 -102.5 42 -100.5 C 41.40625 -99.394531 41.109375 -98.316406 41.109375 -97.265625 C 41.109375 -96.222656 41.359375 -95.25 41.859375 -94.34375 L 60.3125 -66 L 86.40625 -104.40625 C 97.800781 -121.101562 110.601562 -129.453125 124.8125 -129.453125 C 126.007812 -129.453125 127.257812 -129.398438 128.5625 -129.296875 L 128.5625 -127.796875 C 120.351562 -127.597656 112.148438 -121.945312 103.953125 -110.84375 C 102.753906 -109.34375 101.578125 -107.742188 100.421875 -106.046875 C 99.273438 -104.347656 98.550781 -103.347656 98.25 -103.046875 L 66.3125 -56.703125 L 96.3125 -10.203125 C 98.007812 -7.703125 100.234375 -5.625 102.984375 -3.96875 C 105.734375 -2.320312 108.554688 -1.5 111.453125 -1.5 Z M 111.453125 -1.5 "/></g></g></g></svg>