<svg version="1.0" preserveAspectRatio="xMidYMid meet" viewBox="177.525 615.5999725032 1182 248.999988878" zoomAndPan="magnify" xmlns:xlink="http://www.w3.org/1999/xlink" xmlns="http://www.w3.org/2000/svg" style="max-height: 500px" width="1182" height="248.999988878"><defs><g/><clipPath id="b04d244bfd"><rect height="180" y="0" width="405" x="0"/></clipPath></defs><g transform="matrix(1, 0, 0, 1, 179, 660)"><g clip-path="url(#b04d244bfd)"><g fill-opacity="1" fill="#ffffff"><g transform="translate(0.791849, 149.821581)"><g><path d="M 85.609375 -104.953125 L 91.15625 -78.5625 L 90.546875 -78.265625 C 86.753906 -83.859375 83.304688 -88.453125 80.203125 -92.046875 C 77.109375 -95.648438 73.585938 -98.300781 69.640625 -100 C 65.691406 -101.695312 60.46875 -102.546875 53.96875 -102.546875 L 34.1875 -102.546875 L 34.1875 -52.171875 L 48.125 -52.171875 C 54.320312 -52.171875 59.34375 -52.695312 63.1875 -53.75 C 67.039062 -54.800781 70.066406 -56.625 72.265625 -59.21875 C 74.460938 -61.8125 76.160156 -65.410156 77.359375 -70.015625 L 77.359375 -32.078125 C 76.160156 -36.679688 74.460938 -40.253906 72.265625 -42.796875 C 70.066406 -45.347656 67.039062 -47.148438 63.1875 -48.203125 C 59.34375 -49.253906 54.320312 -49.78125 48.125 -49.78125 L 34.1875 -49.78125 L 34.1875 -8.546875 C 34.1875 -5.847656 35.304688 -3.972656 37.546875 -2.921875 C 39.796875 -1.867188 42.472656 -1.144531 45.578125 -0.75 L 45.578125 0 L 2.25 0 L 2.25 -0.75 C 5.34375 -1.851562 8.015625 -3.253906 10.265625 -4.953125 C 12.515625 -6.648438 13.640625 -8.847656 13.640625 -11.546875 L 13.640625 -96.40625 C 13.640625 -99.101562 12.515625 -100.972656 10.265625 -102.015625 C 8.015625 -103.066406 5.34375 -103.796875 2.25 -104.203125 L 2.25 -104.953125 Z M 85.609375 -104.953125"/></g></g></g><g fill-opacity="1" fill="#ffffff"><g transform="translate(91.947555, 149.821581)"><g><path d="M 91.75 -30.890625 L 92.359375 -30.578125 L 84.5625 0 L 83.65625 3.296875 L 78.5625 0 L 2.25 0 L 2.25 -0.75 C 5.34375 -1.851562 8.015625 -3.800781 10.265625 -6.59375 C 12.515625 -9.394531 13.640625 -12.796875 13.640625 -16.796875 L 13.640625 -96.40625 C 13.640625 -99.101562 12.515625 -100.972656 10.265625 -102.015625 C 8.015625 -103.066406 5.34375 -103.796875 2.25 -104.203125 L 2.25 -104.953125 L 47.078125 -104.953125 L 47.078125 -104.203125 C 43.273438 -103.796875 40.175781 -103.066406 37.78125 -102.015625 C 35.382812 -100.972656 34.1875 -99.101562 34.1875 -96.40625 L 34.1875 -2.40625 L 45.71875 -2.40625 C 52.019531 -2.40625 57.367188 -3.050781 61.765625 -4.34375 C 66.160156 -5.644531 69.984375 -7.492188 73.234375 -9.890625 C 76.484375 -12.296875 79.53125 -15.269531 82.375 -18.8125 C 85.226562 -22.363281 88.351562 -26.390625 91.75 -30.890625 Z M 91.75 -30.890625"/></g></g></g><g fill-opacity="1" fill="#ffffff"><g transform="translate(183.553047, 149.821581)"><g><path d="M 57.125 2.09375 C 53.820312 2.09375 50.222656 1.742188 46.328125 1.046875 C 42.429688 0.347656 38.554688 -0.894531 34.703125 -2.6875 C 30.859375 -4.488281 27.359375 -6.960938 24.203125 -10.109375 C 21.054688 -13.265625 18.507812 -17.265625 16.5625 -22.109375 C 14.613281 -26.960938 13.640625 -32.835938 13.640625 -39.734375 L 13.640625 -96.40625 C 13.640625 -99.101562 12.515625 -100.972656 10.265625 -102.015625 C 8.015625 -103.066406 5.34375 -103.796875 2.25 -104.203125 L 2.25 -104.953125 L 45.578125 -104.953125 L 45.578125 -104.203125 C 42.472656 -103.796875 39.796875 -103.066406 37.546875 -102.015625 C 35.304688 -100.972656 34.1875 -99.101562 34.1875 -96.40625 L 34.1875 -37.9375 C 34.1875 -30.9375 35.082031 -25.1875 36.875 -20.6875 C 38.675781 -16.1875 41.023438 -12.660156 43.921875 -10.109375 C 46.828125 -7.566406 49.898438 -5.796875 53.140625 -4.796875 C 56.390625 -3.796875 59.46875 -3.296875 62.375 -3.296875 C 65.863281 -3.296875 69.457031 -3.945312 73.15625 -5.25 C 76.851562 -6.550781 80.300781 -8.597656 83.5 -11.390625 C 86.695312 -14.191406 89.296875 -17.789062 91.296875 -22.1875 C 93.296875 -26.582031 94.296875 -31.929688 94.296875 -38.234375 L 94.296875 -81.109375 C 94.296875 -87.109375 93.742188 -91.726562 92.640625 -94.96875 C 91.546875 -98.21875 90.050781 -100.539062 88.15625 -101.9375 C 86.257812 -103.34375 84.007812 -104.144531 81.40625 -104.34375 L 81.40625 -105.09375 L 108.84375 -105.09375 L 108.84375 -104.34375 C 106.84375 -104.144531 104.96875 -103.59375 103.21875 -102.6875 C 101.46875 -101.789062 100.066406 -99.96875 99.015625 -97.21875 C 97.972656 -94.46875 97.453125 -90.097656 97.453125 -84.109375 L 97.453125 -40.03125 C 97.453125 -30.9375 95.703125 -23.238281 92.203125 -16.9375 C 88.703125 -10.644531 83.90625 -5.898438 77.8125 -2.703125 C 71.71875 0.492188 64.820312 2.09375 57.125 2.09375 Z M 57.125 2.09375"/></g></g></g><g fill-opacity="1" fill="#ffffff"><g transform="translate(291.650546, 149.821581)"><g><path d="M 93.84375 -16.1875 C 96.75 -11.988281 99.625 -8.515625 102.46875 -5.765625 C 105.320312 -3.023438 108 -1.300781 110.5 -0.59375 L 110.5 0 L 81.703125 0 L 71.8125 -16.1875 L 52.171875 -44.984375 L 27.578125 -15.140625 C 24.878906 -11.835938 23.628906 -9.210938 23.828125 -7.265625 C 24.035156 -5.316406 25.285156 -3.84375 27.578125 -2.84375 C 29.878906 -1.84375 32.628906 -1.09375 35.828125 -0.59375 L 35.828125 0 L 2.25 0 L 2.25 -0.59375 C 6.34375 -1.5 9.9375 -2.953125 13.03125 -4.953125 C 16.132812 -6.953125 19.6875 -10.398438 23.6875 -15.296875 L 50.21875 -47.671875 L 20.390625 -91.296875 C 17.492188 -95.597656 14.742188 -98.75 12.140625 -100.75 C 9.546875 -102.75 7 -103.945312 4.5 -104.34375 L 4.5 -104.953125 L 34.1875 -104.953125 L 42.421875 -91.296875 L 62.375 -62.21875 L 85 -89.796875 C 87.800781 -93.097656 89.050781 -95.722656 88.75 -97.671875 C 88.445312 -99.617188 87.195312 -101.09375 85 -102.09375 C 82.800781 -103.09375 80.054688 -103.84375 76.765625 -104.34375 L 76.765625 -104.953125 L 110.34375 -104.953125 L 110.34375 -104.34375 C 106.25 -103.445312 102.675781 -102 99.625 -100 C 96.570312 -98 93 -94.550781 88.90625 -89.65625 L 64.171875 -59.515625 Z M 93.84375 -16.1875"/></g></g></g></g></g><g fill-opacity="1" fill="#ffffff"><g transform="translate(736.848306, 809.807382)"><g><path d="M 85.65625 -105 L 91.203125 -78.59375 L 90.59375 -78.296875 C 86.800781 -83.898438 83.351562 -88.5 80.25 -92.09375 C 77.144531 -95.695312 73.617188 -98.347656 69.671875 -100.046875 C 65.722656 -101.742188 60.5 -102.59375 54 -102.59375 L 34.203125 -102.59375 L 34.203125 -52.203125 L 48.15625 -52.203125 C 54.351562 -52.203125 59.375 -52.722656 63.21875 -53.765625 C 67.070312 -54.816406 70.097656 -56.644531 72.296875 -59.25 C 74.492188 -61.851562 76.195312 -65.453125 77.40625 -70.046875 L 77.40625 -32.09375 C 76.195312 -36.695312 74.492188 -40.273438 72.296875 -42.828125 C 70.097656 -45.378906 67.070312 -47.175781 63.21875 -48.21875 C 59.375 -49.269531 54.351562 -49.796875 48.15625 -49.796875 L 34.203125 -49.796875 L 34.203125 -8.546875 C 34.203125 -5.847656 35.328125 -3.972656 37.578125 -2.921875 C 39.828125 -1.867188 42.5 -1.144531 45.59375 -0.75 L 45.59375 0 L 2.25 0 L 2.25 -0.75 C 5.351562 -1.851562 8.03125 -3.253906 10.28125 -4.953125 C 12.53125 -6.648438 13.65625 -8.847656 13.65625 -11.546875 L 13.65625 -96.453125 C 13.65625 -99.148438 12.53125 -101.023438 10.28125 -102.078125 C 8.03125 -103.128906 5.351562 -103.851562 2.25 -104.25 L 2.25 -105 Z M 85.65625 -105"/></g></g></g><g fill-opacity="1" fill="#ffffff"><g transform="translate(828.048326, 809.807382)"><g><path d="M 106.65625 -18.90625 C 108.445312 -14.300781 110.039062 -10.722656 111.4375 -8.171875 C 112.84375 -5.617188 114.320312 -3.789062 115.875 -2.6875 C 117.425781 -1.59375 119.300781 -0.894531 121.5 -0.59375 L 121.5 0 L 74.09375 0 L 74.09375 -0.59375 C 77.59375 -0.894531 80.492188 -1.570312 82.796875 -2.625 C 85.097656 -3.675781 86.546875 -5.398438 87.140625 -7.796875 C 87.742188 -10.203125 87.144531 -13.601562 85.34375 -18 L 82.34375 -25.5 L 25.046875 -25.5 L 21.75 -18 C 19.851562 -13.695312 19.15625 -10.394531 19.65625 -8.09375 C 20.15625 -5.800781 21.40625 -4.128906 23.40625 -3.078125 C 25.40625 -2.023438 27.800781 -1.195312 30.59375 -0.59375 L 30.59375 0 L 3 0 L 3 -0.59375 C 5.101562 -1.195312 6.976562 -2.046875 8.625 -3.140625 C 10.269531 -4.242188 11.867188 -5.945312 13.421875 -8.25 C 14.972656 -10.550781 16.648438 -13.851562 18.453125 -18.15625 L 51.296875 -93.90625 L 51 -98.25 L 53.84375 -99.90625 L 71.546875 -109.34375 C 71.546875 -108.945312 71.71875 -108.070312 72.0625 -106.71875 C 72.414062 -105.375 73.394531 -102.75 75 -98.84375 Z M 26.09375 -28.203125 L 81.296875 -28.203125 L 54.75 -94.34375 Z M 26.09375 -28.203125"/></g></g></g><g fill-opacity="1" fill="#ffffff"><g transform="translate(949.548361, 809.807382)"><g><path d="M 69.453125 -60.75 C 79.046875 -59.75 86.867188 -57.148438 92.921875 -52.953125 C 98.972656 -48.753906 102 -42.503906 102 -34.203125 C 102 -27.203125 99.875 -21.148438 95.625 -16.046875 C 91.375 -10.953125 85.546875 -7.003906 78.140625 -4.203125 C 70.742188 -1.398438 62.347656 0 52.953125 0 L 2.25 0 L 2.25 -0.75 C 5.351562 -1.851562 8.03125 -3.253906 10.28125 -4.953125 C 12.53125 -6.648438 13.65625 -8.847656 13.65625 -11.546875 L 13.65625 -96.453125 C 13.65625 -99.148438 12.53125 -101.023438 10.28125 -102.078125 C 8.03125 -103.128906 5.351562 -103.851562 2.25 -104.25 L 2.25 -105 L 46.953125 -105 C 53.046875 -105 58.789062 -104.695312 64.1875 -104.09375 C 69.59375 -103.5 74.394531 -102.453125 78.59375 -100.953125 C 82.800781 -99.453125 86.101562 -97.347656 88.5 -94.640625 C 90.894531 -91.941406 92.09375 -88.445312 92.09375 -84.15625 C 92.09375 -78.65625 90.019531 -73.753906 85.875 -69.453125 C 81.726562 -65.148438 76.253906 -62.25 69.453125 -60.75 Z M 46.203125 -102.59375 L 34.203125 -102.59375 L 34.203125 -61.203125 L 57 -61.203125 C 59.695312 -61.203125 62.195312 -61.578125 64.5 -62.328125 C 66.800781 -63.078125 68.625 -64.578125 69.96875 -66.828125 C 71.320312 -69.078125 72 -72.5 72 -77.09375 C 72 -81.894531 71.125 -86.21875 69.375 -90.0625 C 67.625 -93.914062 64.875 -96.96875 61.125 -99.21875 C 57.375 -101.46875 52.398438 -102.59375 46.203125 -102.59375 Z M 54.453125 -2.40625 C 60.953125 -2.40625 66.175781 -3.03125 70.125 -4.28125 C 74.070312 -5.53125 76.96875 -8.003906 78.8125 -11.703125 C 80.664062 -15.398438 81.59375 -20.945312 81.59375 -28.34375 C 81.59375 -32.050781 81.242188 -35.675781 80.546875 -39.21875 C 79.847656 -42.769531 78.421875 -46.019531 76.265625 -48.96875 C 74.117188 -51.925781 70.945312 -54.28125 66.75 -56.03125 C 62.550781 -57.78125 56.898438 -58.65625 49.796875 -58.65625 L 34.203125 -58.65625 L 34.203125 -5.84375 C 37.796875 -4.75 41.191406 -3.898438 44.390625 -3.296875 C 47.597656 -2.703125 50.953125 -2.40625 54.453125 -2.40625 Z M 54.453125 -2.40625"/></g></g></g><g fill-opacity="1" fill="#ffffff"><g transform="translate(1054.548352, 809.807382)"><g><path d="M 90 -19.796875 C 93 -15.796875 95.671875 -12.617188 98.015625 -10.265625 C 100.367188 -7.921875 102.695312 -6.023438 105 -4.578125 C 107.300781 -3.128906 109.75 -1.753906 112.34375 -0.453125 L 112.34375 0 L 79.953125 0 L 79.953125 -2.546875 L 51.75 -42.296875 L 34.203125 -42.296875 L 34.203125 -8.546875 C 34.203125 -5.847656 35.328125 -3.972656 37.578125 -2.921875 C 39.828125 -1.867188 42.5 -1.144531 45.59375 -0.75 L 45.59375 0 L 2.25 0 L 2.25 -0.75 C 5.351562 -1.144531 8.03125 -1.867188 10.28125 -2.921875 C 12.53125 -3.972656 13.65625 -5.847656 13.65625 -8.546875 L 13.65625 -96.453125 C 13.65625 -99.148438 12.53125 -101.023438 10.28125 -102.078125 C 8.03125 -103.128906 5.351562 -103.851562 2.25 -104.25 L 2.25 -105 L 58.796875 -105 C 72.203125 -105 82.601562 -102.722656 90 -98.171875 C 97.394531 -93.617188 101.09375 -86.445312 101.09375 -76.65625 C 101.09375 -69.15625 98.492188 -62.578125 93.296875 -56.921875 C 88.097656 -51.273438 80.945312 -47.203125 71.84375 -44.703125 Z M 34.203125 -102.296875 L 34.203125 -48.15625 C 42.203125 -45.851562 50.148438 -44.703125 58.046875 -44.703125 C 63.148438 -44.703125 67.375 -45.398438 70.71875 -46.796875 C 74.070312 -48.203125 76.597656 -50.78125 78.296875 -54.53125 C 79.992188 -58.28125 80.84375 -63.601562 80.84375 -70.5 C 80.84375 -74.5 80.46875 -78.375 79.71875 -82.125 C 78.96875 -85.875 77.539062 -89.273438 75.4375 -92.328125 C 73.34375 -95.378906 70.296875 -97.800781 66.296875 -99.59375 C 62.296875 -101.394531 57.097656 -102.296875 50.703125 -102.296875 Z M 34.203125 -102.296875"/></g></g></g><g fill-opacity="1" fill="#ffffff"><g transform="translate(1162.398379, 809.807382)"><g><path d="M 2.25 0 L 2.25 -0.75 C 5.351562 -1.144531 8.03125 -1.867188 10.28125 -2.921875 C 12.53125 -3.972656 13.65625 -5.847656 13.65625 -8.546875 L 13.65625 -96.453125 C 13.65625 -99.148438 12.53125 -101.023438 10.28125 -102.078125 C 8.03125 -103.128906 5.351562 -103.851562 2.25 -104.25 L 2.25 -105 L 45.59375 -105 L 45.59375 -104.25 C 42.5 -103.851562 39.828125 -103.128906 37.578125 -102.078125 C 35.328125 -101.023438 34.203125 -99.148438 34.203125 -96.453125 L 34.203125 -8.546875 C 34.203125 -5.847656 35.328125 -3.972656 37.578125 -2.921875 C 39.828125 -1.867188 42.5 -1.144531 45.59375 -0.75 L 45.59375 0 Z M 2.25 0"/></g></g></g><g fill-opacity="1" fill="#ffffff"><g transform="translate(1207.248412, 809.807382)"><g><path d="M 106.046875 -16.65625 C 102.847656 -11.550781 97.898438 -7.148438 91.203125 -3.453125 C 84.503906 0.242188 75.953125 2.09375 65.546875 2.09375 C 57.148438 2.09375 49.375 0.742188 42.21875 -1.953125 C 35.070312 -4.648438 28.847656 -8.421875 23.546875 -13.265625 C 18.242188 -18.117188 14.117188 -23.867188 11.171875 -30.515625 C 8.222656 -37.171875 6.75 -44.398438 6.75 -52.203125 C 6.75 -61.203125 8.546875 -69.125 12.140625 -75.96875 C 15.742188 -82.820312 20.59375 -88.546875 26.6875 -93.140625 C 32.789062 -97.742188 39.59375 -101.21875 47.09375 -103.5625 C 54.59375 -105.914062 62.195312 -107.09375 69.90625 -107.09375 C 79.601562 -107.09375 87.578125 -105.519531 93.828125 -102.375 C 100.078125 -99.226562 104.898438 -95.550781 108.296875 -91.34375 L 86.546875 -62.09375 L 86.09375 -62.25 C 88.09375 -67.445312 88.992188 -72.519531 88.796875 -77.46875 C 88.597656 -82.425781 87.421875 -86.90625 85.265625 -90.90625 C 83.117188 -94.90625 80.046875 -98.078125 76.046875 -100.421875 C 72.046875 -102.773438 67.195312 -103.953125 61.5 -103.953125 C 55.394531 -103.953125 49.894531 -102.425781 45 -99.375 C 40.101562 -96.320312 36.226562 -91.71875 33.375 -85.5625 C 30.519531 -79.414062 29.09375 -71.644531 29.09375 -62.25 C 29.09375 -54.644531 30.21875 -47.414062 32.46875 -40.5625 C 34.71875 -33.71875 37.894531 -27.671875 42 -22.421875 C 46.101562 -17.171875 51.003906 -13.046875 56.703125 -10.046875 C 62.398438 -7.046875 68.75 -5.546875 75.75 -5.546875 C 81.25 -5.546875 86.695312 -6.519531 92.09375 -8.46875 C 97.5 -10.425781 101.800781 -13.40625 105 -17.40625 Z M 106.046875 -16.65625"/></g></g></g><g fill-opacity="1" fill="#ffffff"><g transform="translate(594.496806, 794.205488)"><g><path d="M 129.296875 -49.5 C 131.492188 -45.695312 130.894531 -40.742188 127.5 -34.640625 C 124.101562 -28.546875 118.203125 -21.898438 109.796875 -14.703125 C 104.597656 -10.296875 98.195312 -5.894531 90.59375 -1.5 C 92.59375 2.894531 94.789062 7.144531 97.1875 11.25 C 99.59375 15.351562 102.296875 19.203125 105.296875 22.796875 C 106.296875 24.203125 106.742188 25.703125 106.640625 27.296875 C 106.546875 28.898438 105.800781 30.203125 104.40625 31.203125 C 103.40625 32.003906 102.203125 32.40625 100.796875 32.40625 C 98.992188 32.40625 97.492188 31.703125 96.296875 30.296875 C 90.296875 22.492188 85 13.59375 80.40625 3.59375 C 71.195312 8 61.691406 11.550781 51.890625 14.25 C 42.097656 16.945312 33.203125 18.195312 25.203125 18 C 17.203125 17.800781 11.300781 15.703125 7.5 11.703125 C -2.695312 0.503906 7 -19.492188 36.59375 -48.296875 C 42 -53.492188 46.953125 -58.539062 51.453125 -63.4375 C 55.953125 -68.34375 60.101562 -73 63.90625 -77.40625 C 63.695312 -91.601562 64.695312 -105.203125 66.90625 -118.203125 C 69.101562 -130.597656 72.953125 -140.046875 78.453125 -146.546875 C 83.953125 -153.046875 89.300781 -156.695312 94.5 -157.5 C 101.101562 -158.5 105.90625 -156 108.90625 -150 C 111.90625 -144 111.15625 -134.546875 106.65625 -121.640625 C 102.15625 -108.742188 91.800781 -92.597656 75.59375 -73.203125 C 75.800781 -63.597656 76.753906 -53.546875 78.453125 -43.046875 C 80.148438 -32.546875 82.800781 -22.296875 86.40625 -12.296875 C 92.40625 -15.898438 97.703125 -19.601562 102.296875 -23.40625 C 107.703125 -28.195312 111.601562 -32.191406 114 -35.390625 C 116.394531 -38.597656 117.894531 -41 118.5 -42.59375 C 118.300781 -42.394531 117.898438 -42.296875 117.296875 -42.296875 C 115.898438 -41.703125 114.5 -41.753906 113.09375 -42.453125 C 111.695312 -43.148438 110.695312 -44.300781 110.09375 -45.90625 C 109.5 -47.300781 109.550781 -48.695312 110.25 -50.09375 C 110.945312 -51.5 112.097656 -52.5 113.703125 -53.09375 C 118.898438 -54.894531 122.648438 -55.046875 124.953125 -53.546875 C 127.253906 -52.046875 128.703125 -50.695312 129.296875 -49.5 Z M 78.296875 -116.09375 C 77.703125 -112.695312 77.203125 -109 76.796875 -105 C 76.398438 -101 76.101562 -96.695312 75.90625 -92.09375 C 83.695312 -102.5 89.289062 -111.300781 92.6875 -118.5 C 96.09375 -125.695312 98.09375 -131.492188 98.6875 -135.890625 C 99.289062 -140.296875 99.195312 -143.300781 98.40625 -144.90625 C 98 -145.695312 97.5 -146.09375 96.90625 -146.09375 C 96.695312 -146.09375 96.492188 -146.09375 96.296875 -146.09375 C 93.492188 -145.695312 90.191406 -143 86.390625 -138 C 82.597656 -133 79.898438 -125.695312 78.296875 -116.09375 Z M 16.203125 3.90625 C 18.203125 6.101562 22.347656 7.050781 28.640625 6.75 C 34.941406 6.445312 42.34375 5.09375 50.84375 2.6875 C 59.34375 0.289062 67.796875 -2.90625 76.203125 -6.90625 C 73.003906 -15.5 70.453125 -24.34375 68.546875 -33.4375 C 66.648438 -42.539062 65.398438 -51.695312 64.796875 -60.90625 C 58.597656 -54.101562 51.898438 -47.101562 44.703125 -39.90625 C 35.097656 -30.695312 28.09375 -23.039062 23.6875 -16.9375 C 19.289062 -10.84375 16.691406 -6.09375 15.890625 -2.6875 C 15.097656 0.707031 15.203125 2.90625 16.203125 3.90625 Z M 16.203125 3.90625"/></g></g></g></svg>